<?xml version="1.0" encoding="UTF-8"?>
<svg id="Capa_1" xmlns="http://www.w3.org/2000/svg" version="1.1" viewBox="0 0 1280 1024">
  <!-- Generator: Adobe Illustrator 29.0.0, SVG Export Plug-In . SVG Version: 2.1.0 Build 186)  -->
  <defs>
    <style>
      .st0 {
        fill: #0bbddc;
      }

      .st1 {
        fill: #0cbfde;
      }
    </style>
  </defs>
  <path class="st1" d="M579.48,1.11c361.1-23.79,627.74,339.17,509.99,679.33-132.54,382.74-651.32,471.5-888.35,134.39C-28.27,488.59,179.02,27.5,579.48,1.11h0Z"/>
  <path d="M881.14,515.6c68.44-92.06,29.45-236.53-94.29-243.14,26.19,104.78-59.31,206.3-167.23,198.12-11.94-.91-34.07-10.28-43.24-6.24-5.37,2.35-14.17,15.69-20.98,20.65-6.36,4.67-17.31,5.04-19.58,7.27-1.65,1.65-3.84,14.41-9.17,21.81-10.2,14.17-25.11,16.89-32.01,23.75-8.59,8.59-13.3,27.38-30.19,38-14.95,9.38-39.65,4.87-41.14,6.36-2.48,2.52,6.73,33.66-10.78,45.06-5.12,3.35-14.7,3.02-17.18,5.45-1.86,1.86-3.47,14.29-9.17,21.81-17.14,22.63-42.33,45.64-71.78,30.4-8.55-4.42-54.27-51.71-55.51-60.22-1.49-10.04,4.17-44.19,11.65-52.82l204.44-204.57c.17-35.35-9.71-58.57-.95-95.82,27.67-117.38,175.12-162.23,265.36-81.74,11.65,10.41,26.27,36.59,33.37,40.97,10.74,6.61,36.84,6.53,51.3,10.66,110.23,31.64,152.53,154.18,106.72,255.57-5.25,11.61-25.9,38.74-26.52,45.84-2.6,30.48,33.87,102.8,19.04,128.45-33.83,23.79-186.15,200.19-209.73,203.7-4.71.7-8.18.25-11.61-3.3l-152.61-153.19c-3.88-7.39-3.55-16.48,1.82-22.88l202.67-202.13c18.79-7.39,118.45,27.34,127.25,22.18h.04Z"/>
  <path class="st0" d="M716.6,235.25c-78.89.87-67.36,58.69,8.26,33.12-7.19,31.8-39.73,47.25-68.15,28.91-58.36-37.67,19-120.97,59.89-61.99v-.04Z"/>
</svg>