<?xml version="1.0" standalone="no"?>
<!DOCTYPE svg PUBLIC "-//W3C//DTD SVG 20010904//EN"
 "http://www.w3.org/TR/2001/REC-SVG-20010904/DTD/svg10.dtd">
<svg version="1.0" xmlns="http://www.w3.org/2000/svg"
 width="262.000000pt" height="262.000000pt" viewBox="0 0 262.000000 262.000000"
 preserveAspectRatio="xMidYMid meet">

<g transform="translate(0.000000,262.000000) scale(0.100000,-0.100000)"
fill="#000000" stroke="none">
<path d="M1083 2230 c-368 -5 -383 -6 -410 -26 -15 -12 -37 -36 -48 -55 -19
-33 -20 -55 -23 -817 -2 -513 1 -796 8 -821 14 -52 46 -90 94 -112 38 -17 77
-19 601 -19 337 0 574 4 595 10 45 12 97 65 110 111 6 20 10 263 10 611 l0
576 -212 4 c-238 3 -259 9 -305 78 -22 32 -23 42 -23 246 0 117 -3 214 -7 216
-5 2 -180 1 -390 -2z m587 -780 c24 -24 24 -29 4 -58 l-15 -22 -348 0 c-256 0
-350 3 -359 12 -18 18 -15 65 6 77 10 7 144 11 355 11 324 0 338 -1 357 -20z
m6 -225 c15 -23 15 -27 0 -50 l-16 -25 -348 0 c-372 0 -372 0 -372 50 0 50 0
50 372 50 l348 0 16 -25z m5 -216 c15 -28 -2 -66 -33 -74 -13 -3 -173 -5 -356
-3 -356 3 -351 2 -352 54 0 43 6 44 377 44 349 0 352 0 364 -21z m-226 -209
c15 -16 17 -26 9 -48 l-9 -27 -244 -3 c-171 -2 -248 1 -257 9 -20 16 -17 66 4
78 10 6 110 11 248 11 220 0 232 -1 249 -20z"/>
<path d="M1580 2016 c0 -154 3 -187 16 -200 13 -13 46 -16 202 -16 l187 0
-200 200 c-110 110 -201 200 -202 200 -2 0 -3 -83 -3 -184z"/>
</g>
</svg>
