<?xml version="1.0" encoding="UTF-8"?>
<!DOCTYPE svg PUBLIC "-//W3C//DTD SVG 1.1//EN" "http://www.w3.org/Graphics/SVG/1.1/DTD/svg11.dtd">
<svg xmlns="http://www.w3.org/2000/svg" version="1.1" width="262px" height="262px" style="shape-rendering:geometricPrecision; text-rendering:geometricPrecision; image-rendering:optimizeQuality; fill-rule:evenodd; clip-rule:evenodd" xmlns:xlink="http://www.w3.org/1999/xlink">
<g><path style="opacity:1" fill="#fcfefe" d="M -0.5,-0.5 C 86.8333,-0.5 174.167,-0.5 261.5,-0.5C 261.5,47.5 261.5,95.5 261.5,143.5C 261.167,143.5 260.833,143.5 260.5,143.5C 263.892,88.1102 241.892,46.2769 194.5,18C 142.551,-6.78673 93.5515,-2.12007 47.5,32C 8.13992,66.9685 -6.19341,110.135 4.5,161.5C 5.5648,167.359 7.23147,173.026 9.5,178.5C 27.8918,221.563 59.8918,248.23 105.5,258.5C 108.408,259.816 111.408,260.816 114.5,261.5C 76.1667,261.5 37.8333,261.5 -0.5,261.5C -0.5,174.167 -0.5,86.8333 -0.5,-0.5 Z"/></g>
<g><path style="opacity:1" fill="#10bfde" d="M 260.5,143.5 C 254.92,185.825 234.254,218.658 198.5,242C 187.889,247.978 176.889,252.811 165.5,256.5C 158.083,258.103 150.75,259.436 143.5,260.5C 130.765,260.857 118.098,260.19 105.5,258.5C 59.8918,248.23 27.8918,221.563 9.5,178.5C 10.8086,177.376 11.4753,175.876 11.5,174C 9.96302,172.856 8.62969,171.356 7.5,169.5C 8.68401,167.954 9.68401,166.287 10.5,164.5C 11.7989,165.09 12.6322,166.09 13,167.5C 14.1516,163.909 14.9849,160.242 15.5,156.5C 15.523,154.933 15.023,153.6 14,152.5C 13.5034,154.81 13.3367,157.143 13.5,159.5C 12.5,159.5 11.5,159.5 10.5,159.5C 10.4292,155.303 10.7625,151.137 11.5,147C 9.80562,140.611 9.13895,134.111 9.5,127.5C 10.5,127.5 11.5,127.5 12.5,127.5C 12.0239,134.358 12.8572,141.024 15,147.5C 15.0853,133.24 14.9187,118.907 14.5,104.5C 13.0222,104.762 11.6888,104.429 10.5,103.5C 12.408,100.977 12.7414,98.3104 11.5,95.5C 8.9867,100.361 6.65337,104.528 4.5,108C 3.66741,111.484 3.50074,114.984 4,118.5C 5.11502,113.664 7.28168,109.331 10.5,105.5C 11.9241,112.584 11.7575,119.584 10,126.5C 9.66667,125.167 9.33333,123.833 9,122.5C 7.80633,124.623 7.13966,126.957 7,129.5C 6.18999,136.082 6.35666,142.582 7.5,149C 6.70689,150.085 6.04022,151.252 5.5,152.5C 6.84052,156.168 7.17385,159.835 6.5,163.5C 5.74917,162.624 5.24917,161.624 5,160.5C 4.60123,160.728 4.43456,161.062 4.5,161.5C -6.19341,110.135 8.13992,66.9685 47.5,32C 93.5515,-2.12007 142.551,-6.78673 194.5,18C 241.892,46.2769 263.892,88.1102 260.5,143.5 Z"/></g>
<g><path style="opacity:1" fill="#1aadc1" d="M 146.5,38.5 C 121.498,38.3334 96.4978,38.5 71.5,39C 68.0641,40.2739 65.3974,42.4406 63.5,45.5C 62.6851,46.4293 61.8518,47.4293 61,48.5C 60.5,102.166 60.3333,155.832 60.5,209.5C 60.0555,155.329 59.0555,101.162 57.5,47C 59.3333,44.8333 61.1667,42.6667 63,40.5C 63.414,40.9574 63.914,41.2907 64.5,41.5C 65.7381,39.3626 67.5714,38.0293 70,37.5C 70.6667,36.8333 70.6667,36.1667 70,35.5C 68.5905,34.2125 67.0905,33.0458 65.5,32C 68.4491,31.1528 70.7824,31.9861 72.5,34.5C 96.8242,35.4997 121.158,35.8331 145.5,35.5C 145.5,34.1667 145.5,32.8333 145.5,31.5C 147.5,31.5 149.5,31.5 151.5,31.5C 151.719,32.675 151.386,33.675 150.5,34.5C 149.264,33.7542 147.93,33.4208 146.5,33.5C 146.5,35.1667 146.5,36.8333 146.5,38.5 Z"/></g>
<g><path style="opacity:1" fill="#010102" d="M 146.5,38.5 C 146.333,52.1707 146.5,65.8374 147,79.5C 148.844,86.0447 153.01,90.2113 159.5,92C 173.163,92.4999 186.829,92.6666 200.5,92.5C 200.667,132.501 200.5,172.501 200,212.5C 198.147,217.527 194.647,220.527 189.5,221.5C 149.156,221.767 108.823,221.433 68.5,220.5C 66.0887,219.483 64.422,217.816 63.5,215.5C 63.5086,213.692 63.0086,212.025 62,210.5C 61.3333,157.833 61.3333,105.167 62,52.5C 63.2022,50.3225 63.7022,47.9892 63.5,45.5C 65.3974,42.4406 68.0641,40.2739 71.5,39C 96.4978,38.5 121.498,38.3334 146.5,38.5 Z"/></g>
<g><path style="opacity:1" fill="#002b36" d="M 159.5,43.5 C 158.505,54.6544 158.172,65.9877 158.5,77.5C 157.176,65.9933 157.176,54.3266 158.5,42.5C 159.107,42.6236 159.44,42.9569 159.5,43.5 Z"/></g>
<g><path style="opacity:1" fill="#040507" d="M 159.5,43.5 C 172.298,55.798 184.965,68.298 197.5,81C 185.5,81.6667 173.5,81.6667 161.5,81C 159.574,80.5776 158.574,79.4109 158.5,77.5C 158.172,65.9877 158.505,54.6544 159.5,43.5 Z"/></g>
<g><path style="opacity:1" fill="#010f12" d="M 63.5,45.5 C 63.7022,47.9892 63.2022,50.3225 62,52.5C 61.3333,105.167 61.3333,157.833 62,210.5C 63.0086,212.025 63.5086,213.692 63.5,215.5C 61.9925,213.819 60.9925,211.819 60.5,209.5C 60.3333,155.832 60.5,102.166 61,48.5C 61.8518,47.4293 62.6851,46.4293 63.5,45.5 Z"/></g>
<g><path style="opacity:1" fill="#0fbfe2" d="M 9.5,178.5 C 7.23147,173.026 5.5648,167.359 4.5,161.5C 4.43456,161.062 4.60123,160.728 5,160.5C 5.24917,161.624 5.74917,162.624 6.5,163.5C 7.17385,159.835 6.84052,156.168 5.5,152.5C 6.04022,151.252 6.70689,150.085 7.5,149C 6.35666,142.582 6.18999,136.082 7,129.5C 7.13966,126.957 7.80633,124.623 9,122.5C 9.33333,123.833 9.66667,125.167 10,126.5C 11.7575,119.584 11.9241,112.584 10.5,105.5C 7.28168,109.331 5.11502,113.664 4,118.5C 3.50074,114.984 3.66741,111.484 4.5,108C 6.65337,104.528 8.9867,100.361 11.5,95.5C 12.7414,98.3104 12.408,100.977 10.5,103.5C 11.6888,104.429 13.0222,104.762 14.5,104.5C 14.9187,118.907 15.0853,133.24 15,147.5C 12.8572,141.024 12.0239,134.358 12.5,127.5C 11.5,127.5 10.5,127.5 9.5,127.5C 9.13895,134.111 9.80562,140.611 11.5,147C 10.7625,151.137 10.4292,155.303 10.5,159.5C 11.5,159.5 12.5,159.5 13.5,159.5C 13.3367,157.143 13.5034,154.81 14,152.5C 15.023,153.6 15.523,154.933 15.5,156.5C 14.9849,160.242 14.1516,163.909 13,167.5C 12.6322,166.09 11.7989,165.09 10.5,164.5C 9.68401,166.287 8.68401,167.954 7.5,169.5C 8.62969,171.356 9.96302,172.856 11.5,174C 11.4753,175.876 10.8086,177.376 9.5,178.5 Z"/></g>
<g><path style="opacity:1" fill="#27afc6" d="M 95.5,115.5 C 118.663,114.337 141.996,114.17 165.5,115C 168.302,116.731 168.969,118.898 167.5,121.5C 167.5,120.5 167.5,119.5 167.5,118.5C 165.61,118.297 164.11,118.963 163,120.5C 162.801,118.598 161.967,117.098 160.5,116C 138.836,115.5 117.169,115.333 95.5,115.5 Z"/></g>
<g><path style="opacity:1" fill="#0ebfe0" d="M 95.5,115.5 C 117.169,115.333 138.836,115.5 160.5,116C 161.967,117.098 162.801,118.598 163,120.5C 164.11,118.963 165.61,118.297 167.5,118.5C 167.5,119.5 167.5,120.5 167.5,121.5C 165.971,122.347 164.304,123.014 162.5,123.5C 150.737,122.229 138.904,121.563 127,121.5C 115.812,121.501 104.979,122.168 94.5,123.5C 91.6908,120.526 92.0242,117.859 95.5,115.5 Z"/></g>
<g><path style="opacity:1" fill="#0db4cc" d="M 167.5,121.5 C 167.426,123.411 166.426,124.578 164.5,125C 141.5,125.667 118.5,125.667 95.5,125C 94.944,124.617 94.6107,124.117 94.5,123.5C 104.979,122.168 115.812,121.501 127,121.5C 138.904,121.563 150.737,122.229 162.5,123.5C 164.304,123.014 165.971,122.347 167.5,121.5 Z"/></g>
<g><path style="opacity:1" fill="#0fb7d4" d="M 95.5,135.5 C 118.502,135.333 141.502,135.5 164.5,136C 169.408,138.873 169.741,142.206 165.5,146C 142.167,146.667 118.833,146.667 95.5,146C 91.5654,142.504 91.5654,139.004 95.5,135.5 Z"/></g>
<g><path style="opacity:1" fill="#10bcda" d="M 167.5,160.5 C 167.67,163.491 166.337,165.491 163.5,166.5C 140.843,167.5 118.176,167.833 95.5,167.5C 94.5,166.833 93.5,166.167 92.5,165.5C 91.9586,162.348 92.9586,159.848 95.5,158C 118.833,157.333 142.167,157.333 165.5,158C 166.381,158.708 167.047,159.542 167.5,160.5 Z"/></g>
<g><path style="opacity:1" fill="#2da8bc" d="M 167.5,160.5 C 169.239,164.081 168.239,166.748 164.5,168.5C 141.327,168.831 118.327,168.498 95.5,167.5C 118.176,167.833 140.843,167.5 163.5,166.5C 166.337,165.491 167.67,163.491 167.5,160.5 Z"/></g>
<g><path style="opacity:1" fill="#fcfefe" d="M 260.5,143.5 C 260.833,143.5 261.167,143.5 261.5,143.5C 261.5,182.833 261.5,222.167 261.5,261.5C 222.167,261.5 182.833,261.5 143.5,261.5C 143.5,261.167 143.5,260.833 143.5,260.5C 151.354,261.248 158.688,259.914 165.5,256.5C 176.889,252.811 187.889,247.978 198.5,242C 234.254,218.658 254.92,185.825 260.5,143.5 Z"/></g>
<g><path style="opacity:1" fill="#001b20" d="M 92.5,165.5 C 93.5,166.167 94.5,166.833 95.5,167.5C 118.327,168.498 141.327,168.831 164.5,168.5C 141.337,169.663 118.004,169.83 94.5,169C 93.1772,168.184 92.5106,167.017 92.5,165.5 Z"/></g>
<g><path style="opacity:1" fill="#00303f" d="M 143.5,179.5 C 127.497,179.333 111.497,179.5 95.5,180C 94.9558,180.717 94.2891,181.217 93.5,181.5C 93.5,180.5 93.5,179.5 93.5,178.5C 110.342,178.17 127.008,178.503 143.5,179.5 Z"/></g>
<g><path style="opacity:1" fill="#10b8d5" d="M 143.5,179.5 C 147.478,182.877 147.478,186.377 143.5,190C 127.5,190.667 111.5,190.667 95.5,190C 92.4743,187.702 91.8076,184.869 93.5,181.5C 94.2891,181.217 94.9558,180.717 95.5,180C 111.497,179.5 127.497,179.333 143.5,179.5 Z"/></g>
<g><path style="opacity:1" fill="#010d16" d="M 68.5,220.5 C 108.823,221.433 149.156,221.767 189.5,221.5C 150.002,222.665 110.335,222.831 70.5,222C 69.5842,221.722 68.9175,221.222 68.5,220.5 Z"/></g>
<g><path style="opacity:1" fill="#ccf8fc" d="M 165.5,256.5 C 158.688,259.914 151.354,261.248 143.5,260.5C 150.75,259.436 158.083,258.103 165.5,256.5 Z"/></g>
<g><path style="opacity:1" fill="#b2fdfd" d="M 105.5,258.5 C 118.098,260.19 130.765,260.857 143.5,260.5C 143.5,260.833 143.5,261.167 143.5,261.5C 133.833,261.5 124.167,261.5 114.5,261.5C 111.408,260.816 108.408,259.816 105.5,258.5 Z"/></g>
</svg>
