<?xml version="1.0" encoding="UTF-8"?>
<svg id="Capa_1" data-name="Capa 1" xmlns="http://www.w3.org/2000/svg" version="1.1" viewBox="0 0 1280 1024">
  <defs>
    <style>
      .cls-1 {
        fill: #000;
      }

      .cls-1, .cls-2, .cls-3, .cls-4, .cls-5, .cls-6, .cls-7 {
        stroke-width: 0px;
      }

      .cls-2 {
        fill: #0cbfde;
      }

      .cls-3 {
        fill: #d0f2f8;
      }

      .cls-4 {
        fill: #0bbedc;
      }

      .cls-5 {
        fill: #0cbedc;
      }

      .cls-6 {
        fill: #0bbfde;
      }

      .cls-7 {
        fill: #000101;
      }
    </style>
  </defs>
  <path class="cls-3" d="M526.87,581.58c0-.28-.02-.56-.04-.84,5.33-2.68,10.67-2.68,16,0-.02.28-.03.56-.04.84h-15.93Z"/>
  <path class="cls-2" d="M542.84,580.74c-5.33,0-10.67,0-16,0-54.85-4.5-98.92-38.83-115.39-89.87-22-68.22,18.42-143.24,88.02-161.86,50.46-13.5,95-1.68,131.53,35.86,22.82,23.45,33.43,52.57,33.37,85.32-.09,47.28-20.54,83.86-59.43,110.13-18.64,12.59-39.67,18.87-62.1,20.42Z"/>
  <path class="cls-1" d="M464.99,450.99c0-24.55-.02-49.11,0-73.66.01-11.62,6.2-17.84,17.76-17.85,21.24-.03,42.47.09,63.71-.1,3.73-.03,4.77.95,4.67,4.68-.26,10.45-.14,20.9-.07,31.35.08,11.35,6.64,17.79,18.06,17.83,10.62.03,21.24.1,31.85-.05,2.94-.04,4.02.63,4.01,3.81-.11,36.5-.02,73-.12,109.5-.03,10.1-6.52,16.45-16.6,16.47-35.5.06-71.01.06-106.51,0-10.32-.02-16.72-6.48-16.74-16.82-.06-25.05-.02-50.1-.02-75.16Z"/>
  <path class="cls-7" d="M561.84,363.66c13.07,13.06,25.79,25.77,38.73,38.7-11.11,0-22.29.09-33.46-.06-3.27-.04-5.21-2.22-5.23-5.49-.09-11.04-.04-22.09-.04-33.15Z"/>
  <path class="cls-6" d="M534.78,435.15c10.29,0,20.57.06,30.86-.03,3.83-.03,6.87,1.16,6.87,5.33,0,4.09-2.97,5.5-6.81,5.5-20.57-.03-41.15-.02-61.72-.01-3.86,0-6.73-1.56-6.62-5.68.1-3.84,2.9-5.17,6.57-5.14,10.29.07,20.57.02,30.86.02Z"/>
  <path class="cls-5" d="M535.37,489.01c-10.26,0-20.51-.04-30.77.02-3.94.02-7.3-1.1-7.25-5.51.05-4.39,3.42-5.41,7.36-5.4,20.18.07,40.37.07,60.55,0,3.98-.01,7.26,1.15,7.24,5.52-.02,4.44-3.44,5.43-7.35,5.4-9.93-.08-19.85-.03-29.78-.03Z"/>
  <path class="cls-4" d="M534.52,467.37c-9.95,0-19.9-.06-29.86.03-3.92.03-7.34-.88-7.32-5.4.02-4.53,3.56-5.4,7.4-5.4,20.24.01,40.47,0,60.71,0,3.93,0,7.25,1.19,7.06,5.72-.18,4.19-3.4,5.12-7.13,5.09-10.28-.08-20.57-.03-30.85-.03Z"/>
  <path class="cls-5" d="M524.45,499.79c6.62,0,13.24.05,19.86-.02,3.59-.04,6.41,1.06,6.61,5.03.21,4.27-2.68,5.73-6.46,5.74-13.57.04-27.14.03-40.71,0-3.59,0-6.42-1.51-6.41-5.36,0-4.12,2.88-5.48,6.76-5.42,6.78.11,13.57.03,20.36.03Z"/>
</svg>