<?xml version="1.0" encoding="UTF-8"?>
<svg id="Capa_1" data-name="Capa 1" xmlns="http://www.w3.org/2000/svg" version="1.1" viewBox="0 0 1280 1024">
  <defs>
    <style>
      .cls-1 {
        fill: #000;
      }

      .cls-1, .cls-2, .cls-3, .cls-4, .cls-5, .cls-6, .cls-7 {
        stroke-width: 0px;
      }

      .cls-2 {
        fill: #0cbfde;
      }

      .cls-3 {
        fill: #d0f2f8;
      }

      .cls-4 {
        fill: #0bbedc;
      }

      .cls-5 {
        fill: #0cbedc;
      }

      .cls-6 {
        fill: #0bbfde;
      }

      .cls-7 {
        fill: #000101;
      }
    </style>
  </defs>
  <path class="cls-3" d="M592.18,1014.33c-.02-1.08-.07-2.16-.14-3.24,20.67-10.4,41.35-10.37,62.03-.02-.08,1.09-.13,2.17-.14,3.26h-61.75Z"/>
  <path class="cls-2" d="M654.07,1011.07c-20.68,0-41.35.01-62.03.02-212.62-17.44-383.47-150.52-447.29-348.4C59.45,398.26,216.16,107.42,485.94,35.24c195.62-52.34,368.26-6.5,509.86,139.01,88.45,90.9,129.61,203.8,129.36,330.73-.36,183.28-79.6,325.09-230.37,426.93-72.27,48.82-153.77,73.14-240.71,79.16Z"/>
  <path class="cls-1" d="M352.3,508.11c0-95.18-.08-190.37.03-285.55.05-45.06,24.03-69.14,68.83-69.2,82.32-.11,164.65.33,246.96-.39,14.47-.13,18.47,3.67,18.11,18.13-1.01,40.49-.55,81.03-.28,121.54.3,43.98,25.74,68.97,70.02,69.11,41.16.13,82.33.4,123.48-.2,11.38-.17,15.59,2.42,15.55,14.78-.43,141.49-.06,282.98-.47,424.46-.11,39.14-25.29,63.78-64.36,63.86-137.63.25-275.26.24-412.89,0-39.99-.07-64.81-25.12-64.9-65.2-.24-97.11-.08-194.22-.08-291.34Z"/>
  <path class="cls-7" d="M727.72,169.57c50.67,50.63,99.98,99.9,150.14,150.03-43.08,0-86.4.36-129.72-.22-12.68-.17-20.18-8.61-20.29-21.29-.36-42.81-.14-85.62-.14-128.51Z"/>
  <path class="cls-6" d="M622.83,446.71c39.88,0,79.76.22,119.63-.11,14.86-.12,26.63,4.51,26.61,20.68-.02,15.86-11.51,21.34-26.4,21.31-79.75-.12-159.51-.07-239.26-.04-14.96,0-26.1-6.06-25.67-22.01.4-14.89,11.23-20.03,25.46-19.93,39.88.28,79.75.1,119.63.1Z"/>
  <path class="cls-5" d="M625.14,655.46c-39.76,0-79.52-.17-119.28.08-15.27.1-28.3-4.25-28.11-21.37.19-17.04,13.26-20.99,28.54-20.94,78.24.25,156.48.25,234.72,0,15.44-.05,28.15,4.45,28.07,21.4-.08,17.2-13.33,21.04-28.5,20.92-38.48-.3-76.96-.1-115.44-.1Z"/>
  <path class="cls-4" d="M621.82,571.61c-38.58,0-77.16-.22-115.74.11-15.21.13-28.45-3.43-28.38-20.93.06-17.57,13.81-20.95,28.68-20.94,78.44.05,156.89,0,235.33-.03,15.23,0,28.1,4.62,27.37,22.16-.68,16.26-13.18,19.85-27.66,19.74-39.86-.31-79.73-.11-119.6-.11Z"/>
  <path class="cls-5" d="M582.78,697.28c25.66,0,51.33.19,76.99-.07,13.9-.14,24.87,4.12,25.63,19.48.82,16.55-10.4,22.23-25.06,22.27-52.61.14-105.22.11-157.82.02-13.92-.02-24.88-5.86-24.85-20.79.03-15.98,11.17-21.26,26.21-21.03,26.3.41,52.61.11,78.91.12Z"/>
</svg>