<?xml version="1.0" encoding="UTF-8"?>
<svg id="Capa_1" xmlns="http://www.w3.org/2000/svg" version="1.1" viewBox="0 0 1280 1024">
  <!-- Generator: Adobe Illustrator 29.0.0, SVG Export Plug-In . SVG Version: 2.1.0 Build 186)  -->
  <defs>
    <style>
      .st0 {
        fill: #0bbddc;
      }

      .st1 {
        fill: #0bbedd;
      }

      .st2 {
        fill: #0bbcdb;
      }

      .st3 {
        fill: #0bbcda;
      }

      .st4 {
        fill: #0cbfde;
      }

      .st5 {
        fill: #0bbddb;
      }

      .st6 {
        fill: #0bbedc;
      }

      .st7 {
        fill: #0bbfdd;
      }
    </style>
  </defs>
  <path class="st4" d="M564.23,1018.33C158.77,993.62-45.13,516.53,203.72,198.26,413.75-70.38,833.39-51.37,1021.09,232.12c213.32,322.26-2.06,766.25-389.78,786.21"/>
  <path d="M666.8,840.81h-114.4v-151.86c0-9.31-21.9-32.79-31.32-35.72-13.31-4.12-88.82-3.56-102.88.12-12.12,3.17-31.44,24.16-31.44,35.6v151.86h-100.58c-1.11,0-9.54-9.5-11.76-11.92l-2.22-597.72c2.22-34.45,30.65-42.53,60.83-40.71,93.77,5.7,196.34,37.34,291.41,43.88,11.96-.87,42.41,22.77,42.41,32.51v573.96h-.04Z"/>
  <path d="M694.4,840.81v-398.41l202.12,40.47c13.82,3.48,21.27,15.72,28.47,26.77l2.26,289.83c1.9,14.37-21.82,41.34-33.62,41.34h-199.23Z"/>
  <path class="st3" d="M373.76,301.22c14.73-4.24,62.57-5.03,67.6,13.86,8.67,32.47-46.45,33.5-66.69,26.93s-20.55-35.16-.91-40.83v.04Z"/>
  <path class="st2" d="M511.8,301.22c19.21-5.5,76.82-5.82,66.65,26.89-5.94,19.13-49.62,18.81-65.7,13.9-22.06-6.73-19.8-35.36-.95-40.79h0Z"/>
  <path class="st0" d="M369.64,549.55c5.58-1.9,56.23-1.9,61.82,0,15.64,5.27,13.58,34.77-7.33,38.69-8.24,1.54-42.77,1.47-50.33-.75-17.62-5.11-18.89-32.99-4.12-37.98l-.04.04Z"/>
  <path class="st0" d="M364.02,417.8c-10.06-10.06-3.56-29.86,9.74-33.74,7.56-2.18,42.09-2.3,50.33-.75,20.91,3.92,22.97,33.42,7.33,38.69-8.71,2.93-61.22,1.94-67.44-4.24l.04.04Z"/>
  <path class="st6" d="M437.04,470.95c8.32,8.28,6.18,29.3-6.57,32.83-21.38,5.94-91.48,5.7-67.68-31.13,6.26-9.7,66.49-9.42,74.25-1.7h0Z"/>
  <path class="st1" d="M502.06,583.49c-7.84-7.88-7.56-29.82,5.78-33.78,14.14-4.2,66.8-5.19,71.64,13.86,8.32,32.95-68.11,29.22-77.38,19.92h-.04Z"/>
  <path class="st6" d="M502.06,388.1c8.51-8.51,62.61-8.4,71.95,3.13,27.17,33.46-43.01,35.09-62.92,31.32-16.35-3.09-18.26-25.22-9.03-34.45h0Z"/>
  <path class="st0" d="M502.06,500.65c-9.23-9.23-7.33-31.36,9.03-34.45,19.92-3.76,90.09-2.14,62.92,31.32-9.35,11.52-63.44,11.64-71.95,3.13h0Z"/>
  <path class="st2" d="M839.41,591.37c-8.12,8.12-68.27,9.23-73.38-5.62-12.39-35.96,40.63-38.65,63.64-32.04,14.49,4.16,19.92,27.48,9.74,37.66Z"/>
  <path class="st5" d="M780.09,636.55c12.71-2.73,58.77-4.47,63.6,9.62,14.45,42.41-67.04,40.31-76.27,21.07-6.53-13.62-2.69-27.36,12.71-30.69h-.04Z"/>
  <path class="st7" d="M780.09,719.4c22.37-4.87,80.23-5.98,62.25,30.69-5.35,10.97-59.16,10.73-69.06,5.9-13.03-6.38-12.63-32.39,6.81-36.63v.04Z"/>
</svg>