<?xml version="1.0" encoding="UTF-8"?>
<svg id="Capa_1" xmlns="http://www.w3.org/2000/svg" version="1.1" viewBox="0 0 1280 1024">
  <!-- Generator: Adobe Illustrator 29.0.0, SVG Export Plug-In . SVG Version: 2.1.0 Build 186)  -->
  <defs>
    <style>
      .st0 {
        fill: #000102;
      }

      .st1 {
        fill: #0cbfde;
      }
    </style>
  </defs>
  <path class="st1" d="M528.89,2.28c419.41-37.84,699.26,402.36,487.36,766.11-208.52,357.95-737.89,321.2-900.41-57.69C-17.98,398.73,188.69,32.98,528.89,2.28Z"/>
  <path d="M569.22,649.09c-13.88,2.32-12.12,19.48-1.9,24.5,12.79,6.28,139.67,2.06,158.28-3.72,36.88-11.46,60.52-51.94,55.45-89.49-1.57-11.65-15.05-35.03-12.39-40.43,2.3-4.67,66.54-67.95,73.97-73.24,51.37-36.6,108.26,9.06,85.35,66.51-9.61,24.09-93.82,142.13-113.87,164.89-19.08,21.66-39.86,38.04-68.75,44.25l-231.88.13-160.8-159.32c22.56-26.71,53.22-46.54,88.93-50.38,83.39-8.98,181.2,4.97,266.08.42,51.36,8.6,69.44,72.98,27.26,104.57-2.8,2.1-17.73,11.31-18.83,11.31-40.3,0-110.9-6.01-146.91,0Z"/>
  <path d="M443.03,387.29c20.01-12.21,156.11-115.75,165.76-112.97l162.04,113.74c-4.8,26.78,7.76,100.07-3.63,119.98-17.07,29.81-30.54,6.18-51.95,2.58-12.78-2.15-25.84-.42-38.66-.9v-133.73c0-.4-5.25-5.65-5.65-5.65h-128.08c-.4,0-5.65,5.25-5.65,5.65v128.08c0,.4-5.25,5.65-5.65,5.65h-88.52v-122.43Z"/>
  <path d="M841.21,318.69c2,2.28,3.9,5.87,3.97,8.84.13,5-31.25,59.54-44.37,52.52l-193.82-133.97-197.87,134.06c-12.52,3.95-42.19-45.81-41.64-52.96l235.91-167.78,237.81,159.28Z"/>
  <path d="M306.35,581.94c6.42-1.92,12.93-1.53,18.24,2.93l185.59,187.46c2.28,7.64.92,11.69-2.93,18.24-3.05,5.19-65.96,67.41-70.68,68.82-6.42,1.92-12.93,1.53-18.24-2.93l-185.59-187.46c-2.28-7.64-.92-11.69,2.93-18.24,3.05-5.19,65.96-67.41,70.68-68.82Z"/>
  <path class="st0" d="M770.76,238.49l-93.42-60.93c-3.26-4.66.63-18.18,4.9-18.18h82.87c.4,0,5.65,5.25,5.65,5.65v73.46Z"/>
</svg>